<svg width="669" height="669" viewBox="0 0 669 669" fill="none" xmlns="http://www.w3.org/2000/svg">
<path d="M0 22.7239C0 10.1738 10.1738 0 22.7239 0H173.963C186.513 0 196.687 10.1738 196.687 22.7239V646.011C196.687 658.561 186.513 668.735 173.963 668.735H22.7239C10.1738 668.735 0 658.561 0 646.011V334.367V22.7239Z" fill="#3D6EFF"/>
<path d="M236.021 22.7238C236.021 10.1738 246.195 0 258.745 0H409.984C422.534 0 432.708 10.1738 432.708 22.7239V409.987C432.708 422.537 422.534 432.711 409.984 432.711H258.745C246.195 432.711 236.021 422.537 236.021 409.987V22.7238Z" fill="#3D6EFF" fill-opacity="0.85"/>
<path d="M472.055 22.7239C472.055 10.1738 482.229 0 494.779 0H646.018C658.568 0 668.742 10.1738 668.742 22.7239V173.963C668.742 186.513 658.568 196.687 646.018 196.687H494.779C482.229 196.687 472.055 186.513 472.055 173.963V22.7239Z" fill="#3D6EFF" fill-opacity="0.65"/>
</svg>
