<svg width="154" height="160" viewBox="0 0 154 160" fill="none" xmlns="http://www.w3.org/2000/svg">
<path d="M83.1396 32.6834L116.98 52.3486C117.762 52.8027 118.413 53.464 118.865 54.264C119.318 55.0643 119.557 55.9744 119.557 56.9015C119.557 57.8286 119.318 58.7387 118.865 59.539C118.413 60.339 117.762 61.0003 116.98 61.4544L83.1399 81.1206C80.98 82.3756 78.5444 83.035 76.0671 83.035C73.5895 83.035 71.1539 82.3756 68.9944 81.1206L35.1534 61.4544C34.3719 61.0003 33.7213 60.339 33.2684 59.539C32.8156 58.7387 32.5769 57.8286 32.5769 56.9015C32.5769 55.9744 32.8156 55.0643 33.2684 54.264C33.7213 53.464 34.3719 52.8027 35.1534 52.3486L68.9944 32.6834C71.1539 31.4283 73.5895 30.7692 76.0671 30.7692C78.5444 30.7692 80.98 31.4283 83.1396 32.6834Z" fill="#3E21F3"/>
<path opacity="0.7" d="M82.9559 51.1446L131.421 79.3083C132.203 79.7625 132.853 80.4237 133.306 81.2237C133.759 82.024 133.998 82.9342 133.998 83.8612C133.998 84.7883 133.759 85.6988 133.306 86.4988C132.853 87.2991 132.203 87.96 131.421 88.4145L82.9559 116.578C80.7964 117.833 78.3608 118.492 75.8835 118.492C73.4062 118.492 70.9706 117.833 68.811 116.578L20.3457 88.4145C19.5642 87.96 18.9135 87.2991 18.4607 86.4988C18.0079 85.6988 17.7692 84.7883 17.7692 83.8612C17.7692 82.9342 18.0079 82.024 18.4607 81.2237C18.9135 80.4237 19.5642 79.7625 20.3457 79.3083L68.811 51.1446C70.9706 49.8899 73.4062 49.2308 75.8835 49.2308C78.3608 49.2308 80.7964 49.8899 82.9559 51.1446Z" fill="#3E21F3"/>
<path opacity="0.4" d="M84.0611 69.6033L151.428 108.751C152.208 109.205 152.858 109.865 153.31 110.664C153.762 111.463 154 112.372 154 113.297C154 114.223 153.762 115.131 153.31 115.93C152.858 116.729 152.208 117.389 151.428 117.843L84.0608 156.99C81.9047 158.243 79.4732 158.901 76.9999 158.901C74.5266 158.901 72.095 158.243 69.939 156.99L2.57231 117.843C1.79205 117.389 1.14246 116.729 0.690384 115.93C0.238297 115.131 0 114.223 0 113.297C0 112.372 0.238297 111.463 0.690384 110.664C1.14246 109.865 1.79205 109.205 2.57231 108.751L69.939 69.6033C72.095 68.3506 74.5266 67.6923 76.9999 67.6923C79.4732 67.6923 81.9047 68.3506 84.0611 69.6033Z" fill="#3E21F3"/>
</svg>
